<?xml version="1.0" encoding="utf-8"?>
<!-- Generator: Adobe Illustrator 21.0.0, SVG Export Plug-In . SVG Version: 6.00 Build 0)  -->
<svg version="1.1" id="图层_1" xmlns="http://www.w3.org/2000/svg" xmlns:xlink="http://www.w3.org/1999/xlink" x="0px" y="0px"
	 viewBox="0 0 30 30" style="enable-background:new 0 0 30 30;" xml:space="preserve">
<style type="text/css">
	.st0{fill:#FF2020;}
</style>
<g>
	<g>
		<g>
			<g>
				<g>
					<path class="st0" d="M27.5,28.5c0.1,0,0.2-0.2,0.1-0.2l-0.3,0.2L27.5,28.5z"/>
					<path class="st0" d="M27.7,27.8c-0.2,0.1-0.4,0.2-0.6,0.5c0.3-0.2,0.2-0.1,0.5-0.3c0.1,0,0,0.1-0.1,0.2c0.1,0,0,0.1,0.2,0
						c0.1-0.2,0.1-0.3-0.1-0.2C27.6,27.9,27.7,27.8,27.7,27.8z"/>
					<path class="st0" d="M24.4,23.7L24.4,23.7C24.4,23.8,24.4,23.7,24.4,23.7z"/>
					<path class="st0" d="M22.2,21.3C22.3,21.3,22.3,21.3,22.2,21.3C22.3,21.3,22.2,21.3,22.2,21.3z"/>
					<path class="st0" d="M22.1,20.7C22.1,20.7,22.1,20.7,22.1,20.7C22.1,20.7,22.1,20.7,22.1,20.7z"/>
					<path class="st0" d="M24.4,23.7l0-0.1C24.3,23.7,24.4,23.7,24.4,23.7z"/>
					<path class="st0" d="M26.6,27.8C26.7,27.8,26.7,27.8,26.6,27.8C26.7,27.8,26.7,27.8,26.6,27.8C26.7,27.8,26.7,27.8,26.6,27.8z"
						/>
					<path class="st0" d="M25.6,24.5L25.6,24.5c0.1,0,0.1,0,0.1-0.1L25.6,24.5z"/>
					<path class="st0" d="M26.4,25.3c0,0-0.2,0.2-0.3,0.2c0.1-0.1,0.1-0.1,0.2-0.1C26.3,25.4,26.3,25.3,26.4,25.3z"/>
					<path class="st0" d="M27.3,26.9L27.3,26.9C27.3,26.9,27.3,26.9,27.3,26.9z"/>
					<path class="st0" d="M25.1,24C25.1,23.9,25.1,23.9,25.1,24C25.1,23.9,25.1,23.9,25.1,24z"/>
					<path class="st0" d="M2,3.8C2,3.8,2,3.8,2,3.8C2,3.8,2,3.8,2,3.8z"/>
					<path class="st0" d="M2.1,1.9L2.1,1.9c0.1,0,0.1-0.1,0.1-0.1L2.1,1.9z"/>
					<path class="st0" d="M21.6,19.7C21.6,19.7,21.6,19.7,21.6,19.7C21.7,19.7,21.7,19.7,21.6,19.7z"/>
					<path class="st0" d="M14.9,13.3c-0.1,0.3-0.3,0.1-0.4,0.4C14.6,13.6,14.9,13.5,14.9,13.3z"/>
					<path class="st0" d="M26.6,27.8C26.6,27.8,26.6,27.8,26.6,27.8C26.6,27.8,26.6,27.8,26.6,27.8z"/>
					<path class="st0" d="M14.5,13.7C14.5,13.7,14.5,13.7,14.5,13.7L14.5,13.7C14.5,13.7,14.5,13.7,14.5,13.7z"/>
					<path class="st0" d="M19.9,18.2c0,0-0.1,0.1-0.1,0.1C19.8,18.3,19.8,18.2,19.9,18.2z"/>
					<path class="st0" d="M20.8,19.7L20.8,19.7C20.8,19.7,20.8,19.7,20.8,19.7z"/>
					<path class="st0" d="M19,17.8C19,17.8,19,17.8,19,17.8C18.9,17.8,18.9,17.8,19,17.8C18.9,17.8,19,17.8,19,17.8z"/>
					<path class="st0" d="M18.3,17.2C18.3,17.2,18.3,17.2,18.3,17.2C18.3,17.2,18.3,17.2,18.3,17.2L18.3,17.2z"/>
					<path class="st0" d="M4.1,5.7c0-0.1,0.1-0.1,0.1-0.2C4.1,5.7,3.9,5.6,4.1,5.7z"/>
					<path class="st0" d="M26.7,27.7c-0.1,0-0.1,0.1-0.1,0.1C26.7,27.8,26.7,27.8,26.7,27.7C26.7,27.8,26.7,27.7,26.7,27.7z"/>
					<path class="st0" d="M17.4,19.4l-0.1-0.1C17.3,19.3,17.3,19.3,17.4,19.4z"/>
					<path class="st0" d="M8.8,10.5L8.8,10.5C8.8,10.5,8.8,10.5,8.8,10.5z"/>
					<path class="st0" d="M16.9,18.9c0.1-0.1,0.1-0.1,0.1-0.2c0,0,0,0-0.1,0L16.9,18.9z"/>
					<path class="st0" d="M4.2,5.5C4.2,5.5,4.2,5.5,4.2,5.5C4.2,5.5,4.2,5.5,4.2,5.5z"/>
					<path class="st0" d="M3.1,5.3C3.2,5.4,3.4,5.1,3.5,5c0.2,0-0.1,0.2-0.2,0.4c0.1,0,0.4-0.2,0.5-0.1c0,0,0,0.1-0.1,0.1
						C4,5.3,3.9,5.6,4.3,5.5c0,0,0,0.1-0.1,0.1c0.1-0.1,0.2-0.3,0.3-0.4c0,0,0.2-0.1,0.1,0.1c0,0-0.1,0-0.2,0.1l0.1,0
						c-0.2,0.3-0.1,0-0.3,0.2c0.2,0,0.5-0.1,0.5,0.1C4.5,5.8,4.5,5.5,4.4,5.8l0-0.2C4.1,6.1,4.4,5.5,4,6c0.1,0.2,0.3,0,0.4,0.3
						C4.5,6.1,4.6,6,4.7,5.9c0.4,0-0.4,0.8,0,0.6C5,6.4,5.3,6.1,5.2,6.4L4.9,6.6c0.1,0.2,0.5-0.3,0.4,0c-0.1,0.1-0.2,0-0.2,0
						C5,7,5.4,6.6,5.4,6.6L5.2,6.9C5.4,7,5.7,7,5.9,7.1C5.8,7.2,5.7,7.2,5.7,7.3C6,7.4,6.1,7.8,6.2,8.2L6.5,8c0,0-0.1,0.1-0.1,0.1
						C6.3,8.3,6.5,8,6.6,8c0.1,0-0.1,0.2-0.2,0.2c0.3,0,0.8,0,0.7,0.4L7,8.6c0,0.2,0.6-0.3,0.5,0l-0.1,0C7.6,9,8.1,9.1,7.9,9.5
						c0.3-0.3,0.1,0.4,0.5,0c-0.1,0.3-0.2,0.4-0.1,0.7c0,0.1,0.3-0.2,0.4-0.2l-0.2,0.2l0.3-0.1l-0.2,0.3l0.1,0c0,0,0-0.1,0.1-0.2
						c0.2,0,0.1,0.4,0,0.5l0.4,0c-0.1,0.1-0.2,0.1-0.2,0.1c0.3-0.1-0.2,0.3,0.1,0.2c0-0.1,0.1-0.1,0.2-0.2c-0.1,0.2,0,0.3,0.2,0.3
						l-0.2,0.1c0.1,0.2,0.4,0.3,0.6,0.5c0-0.1,0.3-0.4,0.4-0.4l-0.2,0.3c0.2-0.1,0-0.1,0.3-0.2c0,0.1-0.2,0.3-0.3,0.3l0.2,0
						c-0.1,0.1-0.1,0.1-0.2,0.2c0.2-0.1-0.1,0.4,0.2,0.2l-0.1,0.1c0.2,0.2,0.3,0.2,0.5,0.3c0.2-0.2,0.2-0.1,0.4-0.2
						c0,0.2,0,0.5,0.2,0.6c0.2,0,0.2-0.1,0.4-0.2c-0.2,0.2,0,0.3-0.2,0.4c0.2,0.1,0.2,0.2,0.6,0.2c0.1-0.1,0.1-0.2,0.1-0.2
						c0.1,0,0,0.2-0.1,0.2l0,0c0.5,0,0,1.1,0.6,0.9l0,0l0.4,0c0.1,0.1-0.2,0.1-0.2,0.3c0.5-0.1,0.3,0.4,0.6,0.3
						c-0.4,0.7,0.5,0.4,0.3,0.9l0.1-0.1c0.2-0.1,0,0.1,0,0.2c0.1-0.1,0.1-0.2,0.2-0.2c0.5,0.2,0.6,1,0.9,1.5
						c0.1,0.2,0.7-0.6,0.6-0.1l-0.3,0.2c0.6,0,0.6,0.6,1.1,0.7c-0.1,0-0.1,0.1-0.2,0.1c-0.1,0.2,0.2,0.2,0.4,0.1
						c0,0.1-0.1,0.1-0.2,0.2c0,0.2,0.4-0.1,0.2,0.1c0,0-0.1,0-0.1,0c0.1,0,0.2,0.2,0.3,0c0,0.2,0.3,0.1,0.3,0.3
						c0.3-0.2,0.1,0.3,0.4,0c-0.3,0.3-0.1,0.4,0.1,0.4c-0.1,0.1,0,0.2-0.2,0.3c0.1,0.1,0.2,0.1,0.4-0.1c-0.2,0.5,0.6,0,0.2,0.5
						c0.4,0.1,0.7,0.2,1,0.3c-0.3,0.3-0.3-0.2-0.6,0.1c0.3,0.1,0.7-0.1,0.8,0.2c0,0.1-0.2,0.1-0.2,0.1c0.3,0.1,0.3,0.4,0.7,0.4
						c0,0-0.1,0-0.1,0c0,0,0,0.1,0.2,0l-0.1,0c0.2-0.3,0.6-0.3,0.7-0.4c-0.5,0.4,0.1,0.3-0.6,0.7c0.1,0,0.1,0,0.2-0.1
						c0,0.1,0,0.1-0.2,0.2c0.2,0,0.3-0.2,0.4,0c-0.1,0.1-0.1,0.1-0.2,0.1c0.2-0.1,0.4-0.2,0.4,0c0,0-0.1,0.1-0.1,0.1
						c0.2,0.1,0.6-0.1,0.7,0.2c-0.4,0.3,0,0.2-0.3,0.4l0.2,0l0.1-0.2c0.1,0.1,0.3,0,0.3,0.1l-0.2,0l0.2,0.1l0-0.2
						c0.2-0.1,0.3-0.3,0.4-0.2c0,0,0.1,0.1,0,0.3c0,0,0,0,0,0c0.1,0,0.3-0.1,0.3,0c-0.1,0.1-0.3,0.3-0.4,0.3c0.3-0.2,0.3,0.1,0.5,0
						c-0.1,0-0.2,0.2-0.2,0.2l0.2-0.1c0,0.1,0,0.1-0.2,0.2c0.1,0.1,0.3-0.4,0.3-0.1c0,0,0,0-0.1,0c0.1,0.2,0.4,0.2,0.4,0.4
						c-0.2,0.3-0.2,0-0.4,0.2c0.2,0.1,0.7,0.1,0.8,0.3l0-0.1c0.4-0.4-0.1,0.3,0.2,0.2c0,0-0.2,0.2-0.2,0.1c0.1,0.2,0.3,0.2,0.6,0.2
						l-0.1,0.1c0,0.2,0.1,0.2,0.2,0.4c0.1-0.1,0.1,0,0.3-0.2c-0.3,0.8,0.7,0.2,0.5,0.8c0,0-0.1,0-0.1,0l0.3,0.1
						c0.1-0.2,0.1-0.1,0.2-0.3c0.1-0.1,0.2-0.1,0.3-0.1c-0.2,0-0.3,0.3-0.3,0.4c0-0.1,0.1-0.1,0.2-0.2c-0.2,0.4,0.3-0.3,0.3,0
						l-0.1,0.1c0.1,0,0.2-0.1,0.3,0c-0.2,0.2-0.1,0-0.3,0.2c0.1,0.1,0.5-0.2,0.4,0c-0.1,0-0.1,0-0.2,0c-0.1,0.3-0.1,0.2-0.1,0.3l0,0
						l0,0.2l0-0.1c0.6-0.4,0.3,0.1,0.7-0.1c-0.4,0.2-0.2,0.2-0.4,0.4c0,0.1,0,0.2-0.1,0.3c0.2-0.1,0,0.2,0.3,0.1
						c-0.1,0.1,0.1,0.1-0.1,0.2c0.1,0,0.1-0.1,0.2-0.2c0.4-0.1,0,0.6,0.5,0.4c0.3,0,0.5-0.2,0.8-0.2c-0.1,0.2-0.3,0.2-0.3,0.2
						c0,0.2,0,0.2,0.2,0.2c-0.1,0-0.1,0.1-0.2,0.2c0.1,0,0.3-0.2,0.3,0c-0.1,0.1-0.2,0.2-0.3,0.2c0.1,0,0.3-0.1,0.5-0.1
						c-0.1,0.1-0.2,0.1-0.3,0.2c0.1,0,0.3,0.1,0.5-0.1l0-0.1c0,0-0.1,0.2-0.2,0.2c-0.2,0.1,0-0.2,0-0.2l0.1,0
						c0.4-0.5-0.3-0.1-0.3-0.2l0.3-0.3L27,27.4c0.1-0.1,0.2-0.3,0.3-0.3c0.1-0.2-0.2,0-0.1-0.2c0,0,0,0,0.1,0l-0.2,0
						c0.1,0,0.2-0.2,0.2-0.1c0-0.3-0.4,0-0.2-0.2l0,0c-0.3-0.1-0.2,0.2-0.6,0.3l0.4-0.6l-0.2,0.2c0,0,0-0.1,0.1-0.2
						c-0.2,0.1-0.1,0.1-0.3,0.2c0.1-0.3-0.3-0.1,0-0.5c-0.2,0.1,0,0.2-0.3,0.2c0.3-0.4-0.2,0-0.1-0.3c0.2-0.2,0.2,0,0.3-0.2
						c-0.4,0.3-0.1-0.2-0.2-0.2c-0.3,0.3-0.2,0-0.4-0.1c0.1-0.1-0.1-0.3-0.1-0.5l0,0c-0.3,0.2-0.3,0.1-0.5,0.1
						c0.2-0.2,0.2-0.2,0.3-0.2l-0.1-0.1c-0.1,0.1-0.2,0.1-0.2,0.1l0.2-0.2c-0.1-0.1-0.4,0-0.4-0.2c-0.2,0.2-0.4,0.6-0.7,0.6
						c0.1-0.1,0.3-0.3,0.3-0.3c0,0-0.1,0-0.1,0l0.2-0.1c0-0.1-0.2,0.1-0.2,0c0.1-0.1,0.1-0.1,0.2-0.2c0,0,0,0.1,0.1,0.1
						c0-0.1,0-0.2,0.1-0.3c-0.1,0.1-0.2,0.2-0.2,0.2C24.7,24,25,23.9,25,23.8c-0.1,0.1-0.1-0.1-0.3,0.1c0,0,0.1-0.1,0.1-0.2
						c-0.1,0-0.3-0.2-0.4,0.1l0,0c0,0,0,0,0,0c0,0,0,0,0,0l0,0c-0.4,0-0.2-0.5-0.5-0.5l0.1-0.1c-0.2,0-0.3-0.2-0.5-0.1
						c0,0,0.1-0.2,0.2-0.3c-0.1,0-0.2,0.1-0.2-0.2c0.2,0,0.1-0.1,0.2,0c0-0.2,0.1-0.3-0.2-0.2c0.2-0.1,0.2-0.3,0.1-0.3l-0.1,0.2
						c-0.1,0-0.1-0.1-0.1-0.1l0.3-0.2c0.1-0.5-0.8,0.1-0.5-0.5c-0.2,0.1,0,0.2-0.2,0.4c-0.1-0.1,0.2-0.6,0.2-0.6
						c0-0.3-0.5,0.2-0.5,0c-0.1,0.1-0.3,0.3-0.5,0.3c-0.1-0.1,0.2-0.5,0.4-0.5c0,0,0,0.1,0,0.1c0.1,0,0.1,0,0.2-0.1l-0.1,0.1
						c0-0.1-0.1-0.2,0.1-0.4c-0.1,0-0.2,0.1-0.2,0.2c0-0.2-0.2-0.2-0.2-0.4c0,0.1-0.1,0.2-0.1,0.2c-0.1-0.3-0.2,0.1-0.4,0
						c0.1-0.2,0.3-0.3,0.1-0.3c0-0.2,0.2-0.2,0.3-0.3c-0.3,0.1-0.1-0.3-0.1-0.4l0.1,0c-0.1,0-0.1,0-0.1-0.1L21.7,20
						c0-0.1,0-0.1,0-0.2c-0.1,0.1-0.3,0.3-0.5,0.4c0-0.1-0.2,0,0-0.3c0.1,0.2,0.2-0.2,0.4-0.2c0,0-0.1,0-0.1-0.1c0,0,0.1,0,0.1,0
						c0.1-0.3-0.3,0.2-0.4,0c0.1-0.1,0.2-0.3,0.2-0.3c0.1,0.1-0.2,0.2-0.3,0.3c0-0.2-0.2,0-0.2-0.1l0,0.1c-0.1,0.1-0.2,0-0.3,0
						c0.1-0.1,0.1,0,0.1-0.1c-0.3,0.2,0.1-0.4-0.2-0.3c0-0.1,0.2-0.2,0.3-0.3c-0.3,0.1,0.1-0.3-0.2-0.3c-0.1,0.2-0.1,0.2-0.3,0.3
						l0.3,0.1l-0.4,0.1c0.1,0.1,0.2,0,0.2,0.1c-0.2,0.1-0.1,0-0.3,0.2c0.2-0.3-0.3,0-0.2-0.3l0.4-0.4c0.1-0.3-0.4,0-0.5-0.3l0,0.1
						c-0.2,0.1-0.1-0.1-0.3-0.1c0.1-0.1,0.2-0.2,0.2-0.3c-0.1,0.1-0.1-0.1-0.4,0.1l0.1-0.3c-0.1-0.2-0.6,0.2-0.6,0.1
						c0.2-0.1,0.2-0.3,0.4-0.3c0,0-0.1-0.1-0.2,0c0.1-0.1-0.3,0.1-0.2-0.1c-0.1,0-0.2,0.2-0.3,0.1c0,0,0.1-0.1,0.1-0.1
						c-0.1,0.1-0.2,0-0.3,0.2c0.3-0.6-0.4-0.4-0.2-0.8c-0.1-0.1-0.3-0.1-0.4-0.2c0,0,0.1-0.1,0.1,0c0-0.3-0.5,0.3-0.5,0
						c0.2-0.3,0.2,0,0.2-0.2c0.4-0.5-0.2-0.1-0.1-0.5l0,0c0.1-0.2-0.3,0-0.4-0.1c0,0,0,0,0.1-0.1c-0.3,0.2-0.5,0.1-0.7,0
						c0.2-0.1,0.1,0,0.3-0.2c-0.1,0-0.3,0.3-0.4,0.3c0.1-0.1,0.1-0.3,0.3-0.5l0.1,0.1c0.2-0.3-0.1-0.1-0.1-0.2l0.1-0.1
						c-0.2-0.1-0.5,0.2-0.6,0l-0.1,0.1c-0.4,0.2,0.1-0.2-0.2-0.1l0.3-0.3c-0.1,0-0.5,0.1-0.6,0c0.3-0.1,0.5-0.1,0.7-0.2
						c-0.1-0.1-0.2-0.2-0.4-0.1c0,0,0.1,0,0.1,0c-0.3,0.2-0.5,0.2-0.6,0.1c0.6-0.5-0.2-0.4,0.2-0.9c-0.4,0-0.3-0.5-0.6-0.7
						c-0.3,0.5-0.1-0.1-0.5,0.4c-0.1,0-0.1-0.1-0.1-0.1l0.1-0.4c0.1-0.2,0.1,0,0.2-0.1C14.8,13,15,12.9,15,12.7
						c-0.1,0.2-0.3,0.2-0.3,0.1l-0.1,0.3c-0.4,0.1,0.2-0.5-0.2-0.4l0.2-0.1c-0.2,0-0.3-0.3-0.7,0c0-0.1,0.1-0.2,0.2-0.2
						c-0.1-0.3-0.8-0.1-0.8-0.4l0.1-0.1c-0.1,0-0.3,0.1-0.2,0c0,0,0.1-0.1,0.1-0.1c-0.1,0-0.3,0.1-0.3,0l0.2-0.1
						c-0.1-0.3-0.6,0-0.8-0.1c0.3-0.3,0.3-0.6,0.2-0.7l0,0c-0.2-0.3-0.6-0.1-1-0.2c0.2-0.5-0.3-0.6-0.3-1c0,0.1-0.2,0.2-0.3,0.2
						c0-0.1-0.4,0.1-0.1-0.2l0,0c0.2-0.3,0.1-0.3,0-0.4l-0.4,0.4c0.3-0.8-0.7-0.3-0.4-0.9c-0.1,0-0.2,0-0.3,0l0.2-0.2
						C10.1,8.2,10,8.1,9.8,7.9L10,7.8C9.9,7.7,9.3,8.3,9.2,8.2l0.3-0.3C9.3,7.7,9.4,7.3,8.9,7.4c0,0,0.1-0.1,0.2-0.1
						C9,7.2,9,6.8,8.6,7.2C8.9,6.9,8.5,7,8.3,7l0.2-0.2C8.1,7,8.1,7.1,7.9,7.1C7.9,7,8,6.9,8,7c0-0.2-0.3,0.1-0.3-0.1l0.2-0.1
						c-0.1-0.1-0.1,0-0.3,0.1c-0.1,0-0.1-0.2,0-0.4C7.5,6.5,7.3,6.6,7.3,6.5c0.1-0.1,0.1-0.1,0.2-0.1c0-0.3-0.4,0-0.4-0.3
						C7.2,6.1,7.2,6,7.2,6c0.1,0.1,0.2,0.2,0.2,0.2c0.2-0.2,0.1-0.3,0.4-0.5C7.6,5.8,7.2,6,7.2,5.8c0,0,0,0,0.1-0.1l0,0
						c0,0,0,0-0.1,0c0-0.1,0-0.1,0-0.1c0.1-0.2,0-0.2-0.1-0.2C6.9,5.5,6.9,5.4,6.8,5.7c0,0,0,0,0.1,0c0,0,0,0,0,0c0,0,0,0,0,0
						c0,0,0.1,0.1,0.1,0.1C6.9,5.8,6.7,5.9,6.8,5.7C6.6,5.8,6.5,5.9,6.4,6c0.2-0.3,0.2-0.6,0.4-0.8c-0.3,0-0.4-0.3-0.9,0
						C5.8,5.2,6,5,6,5c0.1,0,0.1,0,0.1,0C6,5,5.9,4.7,5.6,5c0-0.2,0.3-0.2,0.1-0.3l0.1-0.1C6,4,4.7,4.9,4.9,4c0,0.1,0,0.1-0.1,0.1
						C4.8,3.6,3.9,3.6,4,2.9c0-0.2-0.2,0-0.4,0l0.2-0.2L3.4,2.9c-0.3,0,0.3-0.8-0.3-0.6L3.1,2.4c0-0.1-0.3-0.1-0.1-0.3
						c0,0-0.2,0.1-0.1,0l0.1-0.1l-0.4,0c0-0.2,0.5-0.4,0.3-0.6c-0.1,0-0.5,0.1-0.6,0.2c0,0,0,0.1-0.1,0.3L2.1,2
						c-0.3,0.3-0.7,0.6-0.8,1l0.3-0.1L1.5,3L1.4,3C1.3,3.2,1.4,3.1,1.5,3C1.5,3.1,1.4,3.2,1.4,3.2L1.8,3C1.7,3.2,1.5,3.2,1.5,3.4
						C1.7,3.3,1.8,3,2,3c-0.1,0.2-0.2,0.3,0,0.2C1.8,3.3,1.8,3.4,1.7,3.4c0.2,0,0.2,0.1,0.4,0C2,3.6,2.3,3.5,2,3.8
						c0.1-0.1,0.3-0.2,0.4-0.1C1.9,4,2.6,3.9,2.1,4.3c0.4-0.3,0.4,0.1,0.7,0c0,0-0.1,0.1-0.1,0c0,0.1,0,0.2-0.1,0.3
						C3,4.4,3.1,4.4,3.3,4.3C3.2,4.6,3,4.6,2.7,4.8C3,4.6,3.1,4.8,3.3,4.6C3.2,4.8,3.2,4.7,3,4.9c0.4-0.3,0.1,0,0.4-0.2
						C3.3,5,3.1,5.1,3.3,5.1C3.3,5.3,3.1,5.3,3.1,5.3z M6,7.1C6,7.1,6,7.1,6,7.1C6,7,5.9,7,6,7.1C5.9,7,6,7,6,7.1z M6.2,7.2
						C6.2,7.2,6.2,7.2,6.2,7.2C6.2,7.1,6.3,7,6.3,7C6.2,7.1,6.2,7.2,6.2,7.2z M7.2,5.5C7.2,5.5,7.2,5.5,7.2,5.5
						C7.1,5.5,7.1,5.5,7.2,5.5C7.1,5.5,7.1,5.5,7,5.5C7.1,5.5,7.1,5.5,7.2,5.5z"/>
					<path class="st0" d="M6.8,5.7C6.8,5.7,6.8,5.7,6.8,5.7C6.8,5.7,6.8,5.7,6.8,5.7C6.8,5.7,6.8,5.7,6.8,5.7
						C6.9,5.7,6.8,5.7,6.8,5.7z"/>
					<path class="st0" d="M24.4,23.8L24.4,23.8C24.4,23.8,24.4,23.8,24.4,23.8C24.4,23.8,24.4,23.8,24.4,23.8z"/>
					<polygon class="st0" points="8.5,10.3 8.6,10.3 8.5,10.3 					"/>
					<path class="st0" d="M24.8,25.6C24.8,25.6,24.8,25.6,24.8,25.6C24.8,25.6,24.8,25.6,24.8,25.6z"/>
					<path class="st0" d="M25.2,26.1l0,0.1C25.2,26.1,25.2,26.1,25.2,26.1z"/>
					<path class="st0" d="M25.5,26.5C25.5,26.5,25.5,26.5,25.5,26.5C25.6,26.4,25.6,26.4,25.5,26.5L25.5,26.5z"/>
					<path class="st0" d="M19.5,21C19.5,21,19.5,21,19.5,21C19.4,21,19.5,21,19.5,21z"/>
					<path class="st0" d="M21.7,22.3c-0.1,0-0.1,0-0.1,0C21.5,22.4,21.6,22.4,21.7,22.3z"/>
					<path class="st0" d="M17.4,19.4C17.4,19.4,17.4,19.4,17.4,19.4C17.4,19.4,17.4,19.4,17.4,19.4L17.4,19.4z"/>
					<path class="st0" d="M21.5,22.2C21.4,22.3,21.5,22.3,21.5,22.2C21.5,22.3,21.5,22.2,21.5,22.2z"/>
					<path class="st0" d="M26.9,28.2L26.9,28.2C27,28.2,27,28.2,26.9,28.2L26.9,28.2z"/>
					<path class="st0" d="M27,28.2L27,28.2C27,28.2,27,28.2,27,28.2z"/>
					<path class="st0" d="M27.1,28.2L27.1,28.2C27,28.2,27,28.2,27.1,28.2z"/>
					<path class="st0" d="M26.6,27.6L26.6,27.6C26.5,27.7,26.5,27.6,26.6,27.6z"/>
					<path class="st0" d="M26.4,27.5c0,0.1-0.1,0.2,0,0.2l0.1-0.1C26.3,27.8,26.5,27.4,26.4,27.5z"/>
					<path class="st0" d="M26.7,26l0.1,0.2c0.1-0.1,0.1-0.2,0.2-0.2C27,25.6,26.8,26.2,26.7,26z"/>
					<path class="st0" d="M26.4,25.5c0.1,0,0.1-0.1,0.2-0.2C26.5,25.4,26.4,25.4,26.4,25.5z"/>
					<path class="st0" d="M23.7,22.8l0.2-0.2C23.8,22.6,23.8,22.7,23.7,22.8z"/>
					<polygon class="st0" points="22.2,23.2 22.2,23.4 22.4,23.2 					"/>
					<polygon class="st0" points="23.2,21.6 23.3,21.6 23.1,21.6 					"/>
					<path class="st0" d="M18.6,17.1l-0.2,0.2C18.5,17.3,18.7,17.1,18.6,17.1z"/>
					<path class="st0" d="M16.4,15.4c0.1-0.1,0.1-0.3,0-0.2C16.4,15.2,16.3,15.4,16.4,15.4z"/>
					<polygon class="st0" points="10.8,9.1 11,9 10.8,9 					"/>
				</g>
			</g>
		</g>
	</g>
</g>
<g>
	<g>
		<g>
			<g>
				<g>
					<path class="st0" d="M1.5,27.5c0,0.1,0.2,0.2,0.2,0.1l-0.2-0.3L1.5,27.5z"/>
					<path class="st0" d="M2.2,27.7c-0.1-0.2-0.2-0.4-0.5-0.6c0.2,0.3,0.1,0.2,0.3,0.5c0,0.1-0.1,0-0.2-0.1c0,0.1-0.1,0,0,0.2
						c0.2,0.1,0.3,0.1,0.2-0.1C2.1,27.6,2.2,27.7,2.2,27.7z"/>
					<path class="st0" d="M6.3,24.4L6.3,24.4C6.2,24.4,6.3,24.4,6.3,24.4z"/>
					<path class="st0" d="M8.7,22.2C8.7,22.3,8.7,22.3,8.7,22.2C8.7,22.3,8.7,22.2,8.7,22.2z"/>
					<path class="st0" d="M9.3,22.1C9.3,22.1,9.3,22.1,9.3,22.1C9.3,22.1,9.3,22.1,9.3,22.1z"/>
					<path class="st0" d="M6.3,24.4l0.1,0C6.3,24.3,6.3,24.4,6.3,24.4z"/>
					<path class="st0" d="M2.2,26.6C2.2,26.7,2.2,26.7,2.2,26.6C2.2,26.7,2.2,26.7,2.2,26.6C2.2,26.7,2.2,26.7,2.2,26.6z"/>
					<path class="st0" d="M5.5,25.6L5.5,25.6c0,0.1,0,0.1,0.1,0.1L5.5,25.6z"/>
					<path class="st0" d="M4.7,26.4c0,0-0.2-0.2-0.2-0.3c0.1,0.1,0.1,0.1,0.1,0.2C4.6,26.3,4.7,26.3,4.7,26.4z"/>
					<path class="st0" d="M3.1,27.3L3.1,27.3C3.1,27.3,3.1,27.3,3.1,27.3z"/>
					<path class="st0" d="M6,25.1C6.1,25.1,6.1,25.1,6,25.1C6.1,25.1,6.1,25.1,6,25.1z"/>
					<path class="st0" d="M26.2,2C26.2,2,26.2,2,26.2,2C26.2,2,26.2,2,26.2,2z"/>
					<path class="st0" d="M28.1,2.1L28.1,2.1c0,0.1,0.1,0.1,0.1,0.1L28.1,2.1z"/>
					<path class="st0" d="M10.3,21.6C10.3,21.6,10.3,21.6,10.3,21.6C10.3,21.7,10.3,21.7,10.3,21.6z"/>
					<path class="st0" d="M16.7,14.9c-0.3-0.1-0.1-0.3-0.4-0.4C16.4,14.6,16.5,14.9,16.7,14.9z"/>
					<path class="st0" d="M2.2,26.6C2.2,26.6,2.2,26.6,2.2,26.6C2.2,26.6,2.2,26.6,2.2,26.6z"/>
					<path class="st0" d="M16.3,14.5C16.3,14.5,16.3,14.5,16.3,14.5L16.3,14.5C16.3,14.5,16.3,14.5,16.3,14.5z"/>
					<path class="st0" d="M11.8,19.9c0,0-0.1-0.1-0.1-0.1C11.7,19.8,11.8,19.8,11.8,19.9z"/>
					<path class="st0" d="M10.3,20.8L10.3,20.8C10.3,20.8,10.3,20.8,10.3,20.8z"/>
					<path class="st0" d="M12.2,19C12.2,19,12.2,19,12.2,19C12.2,18.9,12.2,18.9,12.2,19C12.2,18.9,12.2,19,12.2,19z"/>
					<path class="st0" d="M12.8,18.3C12.8,18.3,12.8,18.3,12.8,18.3C12.8,18.3,12.8,18.3,12.8,18.3L12.8,18.3z"/>
					<path class="st0" d="M24.3,4.1c0.1,0,0.1,0.1,0.2,0.1C24.3,4.1,24.4,3.9,24.3,4.1z"/>
					<path class="st0" d="M2.3,26.7c0-0.1-0.1-0.1-0.1-0.1C2.2,26.7,2.2,26.7,2.3,26.7C2.2,26.7,2.3,26.7,2.3,26.7z"/>
					<path class="st0" d="M10.6,17.4l0.1-0.1C10.7,17.3,10.7,17.3,10.6,17.4z"/>
					<path class="st0" d="M19.5,8.8L19.5,8.8C19.5,8.8,19.5,8.8,19.5,8.8z"/>
					<path class="st0" d="M11.1,16.9c0.1,0.1,0.1,0.1,0.2,0.1c0,0,0,0,0-0.1L11.1,16.9z"/>
					<path class="st0" d="M24.5,4.2C24.5,4.2,24.5,4.2,24.5,4.2C24.5,4.2,24.5,4.2,24.5,4.2z"/>
					<path class="st0" d="M24.7,3.1c-0.1,0.1,0.2,0.3,0.3,0.5c0,0.2-0.2-0.1-0.4-0.2c0,0.1,0.2,0.4,0.1,0.5c0,0-0.1,0-0.1-0.1
						c0.1,0.3-0.2,0.2-0.1,0.6c0,0-0.1,0-0.1-0.1c0.1,0.1,0.3,0.2,0.4,0.3c0,0,0.1,0.2-0.1,0.1c0,0,0-0.1-0.1-0.2l0,0.1
						c-0.3-0.2,0-0.1-0.2-0.3c0,0.2,0.1,0.5-0.1,0.5c-0.3-0.2,0.1-0.2-0.2-0.4l0.2,0c-0.5-0.3,0.1,0-0.4-0.4c-0.2,0.1,0,0.3-0.3,0.4
						c0.1,0.2,0.2,0.2,0.3,0.4c0,0.4-0.8-0.4-0.6,0c0.1,0.2,0.4,0.5,0.1,0.5l-0.2-0.3c-0.2,0.1,0.3,0.5,0,0.4c-0.1-0.1,0-0.2,0-0.2
						c-0.3-0.1,0.1,0.2,0,0.3l-0.3-0.2C23,5.4,23,5.7,22.9,5.9c-0.1-0.1-0.1-0.2-0.2-0.2c-0.1,0.3-0.5,0.4-0.8,0.5L22,6.5
						c0,0-0.1-0.1-0.1-0.1c-0.2,0,0.1,0.1,0.2,0.3c0,0.1-0.2-0.1-0.2-0.2c0,0.3,0,0.8-0.4,0.7l0-0.1c-0.2,0,0.3,0.6,0,0.5l0-0.1
						c-0.3,0.2-0.4,0.6-0.9,0.5c0.3,0.3-0.4,0.1,0,0.5c-0.3-0.1-0.4-0.2-0.7-0.1c-0.1,0,0.2,0.3,0.2,0.4l-0.2-0.2l0.1,0.3l-0.3-0.2
						l0,0.1c0,0,0.1,0,0.2,0.1c0,0.2-0.4,0.1-0.5,0l0,0.4c-0.1-0.1-0.1-0.2-0.1-0.2c0.1,0.3-0.3-0.2-0.2,0.1c0.1,0,0.1,0.1,0.2,0.2
						c-0.2-0.1-0.3,0-0.3,0.2l-0.1-0.2c-0.2,0.1-0.3,0.4-0.5,0.6c0.1,0,0.4,0.3,0.4,0.4l-0.3-0.2c0.1,0.2,0.1,0,0.2,0.3
						c-0.1,0-0.3-0.2-0.3-0.3l0,0.2c-0.1-0.1-0.1-0.1-0.2-0.2c0.1,0.2-0.4-0.1-0.2,0.2l-0.1-0.1c-0.2,0.2-0.2,0.3-0.3,0.5
						c0.2,0.2,0.1,0.2,0.2,0.4c-0.2,0-0.5,0-0.6,0.2c0,0.2,0.1,0.2,0.2,0.4c-0.2-0.2-0.3,0-0.4-0.2c-0.1,0.2-0.2,0.2-0.2,0.6
						c0.1,0.1,0.2,0.1,0.2,0.1c0,0.1-0.2,0-0.2-0.1l0,0c0,0.5-1.1,0-0.9,0.6l0,0l0,0.4c-0.1,0.1-0.1-0.2-0.3-0.2
						c0.1,0.5-0.4,0.3-0.3,0.6c-0.7-0.4-0.4,0.5-0.9,0.3l0.1,0.1c0.1,0.2-0.1,0-0.2,0c0.1,0.1,0.2,0.1,0.2,0.2
						c-0.2,0.5-1,0.6-1.5,0.9c-0.2,0.1,0.6,0.7,0.1,0.6l-0.2-0.3c0,0.6-0.6,0.6-0.7,1.1c0-0.1-0.1-0.1-0.1-0.2
						c-0.2-0.1-0.2,0.2-0.1,0.4c-0.1,0-0.1-0.1-0.2-0.2c-0.2,0,0.1,0.4-0.1,0.2c0,0,0-0.1,0-0.1c0,0.1-0.2,0.2,0,0.3
						c-0.2,0-0.1,0.3-0.3,0.3c0.2,0.3-0.3,0.1,0,0.4c-0.3-0.3-0.4-0.1-0.4,0.1c-0.1-0.1-0.2,0-0.3-0.2c-0.1,0.1-0.1,0.2,0.1,0.4
						c-0.5-0.2,0,0.6-0.5,0.2c-0.1,0.4-0.2,0.7-0.3,1c-0.3-0.3,0.2-0.3-0.1-0.6c-0.1,0.3,0.1,0.7-0.2,0.8c-0.1,0-0.1-0.2-0.1-0.2
						C9.4,19.3,9,19.3,9,19.6c0,0,0-0.1,0-0.1c0,0-0.1,0,0,0.2l0-0.1c0.3,0.2,0.3,0.6,0.4,0.7c-0.4-0.5-0.3,0.1-0.7-0.6
						c0,0.1,0,0.1,0.1,0.2c-0.1,0-0.1,0-0.2-0.2c0,0.2,0.2,0.3,0,0.4c-0.1-0.1-0.1-0.1-0.1-0.2c0.1,0.2,0.2,0.4,0,0.4
						c0,0-0.1-0.1-0.1-0.1C8.3,20.5,8.5,21,8.2,21c-0.3-0.4-0.2,0-0.4-0.3l0,0.2L7.9,21c-0.1,0.1,0,0.3-0.1,0.3l0-0.2l-0.1,0.2
						l0.2,0c0.1,0.2,0.3,0.3,0.2,0.4c0,0-0.1,0.1-0.3,0c0,0,0,0,0,0c0,0.1,0.1,0.3,0,0.3c-0.1-0.1-0.3-0.3-0.3-0.4
						c0.2,0.3-0.1,0.3,0,0.5c0-0.1-0.2-0.2-0.2-0.2l0.1,0.2c-0.1,0-0.1,0-0.2-0.2c-0.1,0.1,0.4,0.3,0.1,0.3c0,0,0,0,0-0.1
						c-0.2,0.1-0.2,0.4-0.4,0.4c-0.3-0.2,0-0.2-0.2-0.4c-0.1,0.2-0.1,0.7-0.3,0.8l0.1,0C6.7,23.4,6,23,6.1,23.2c0,0-0.2-0.2-0.1-0.2
						c-0.2,0.1-0.2,0.3-0.2,0.6l-0.1-0.1c-0.2,0-0.2,0.1-0.4,0.2c0.1,0.1,0,0.1,0.2,0.3c-0.8-0.3-0.2,0.7-0.8,0.5c0,0,0-0.1,0-0.1
						l-0.1,0.3c0.2,0.1,0.1,0.1,0.3,0.2c0.1,0.1,0.1,0.2,0.1,0.3c0-0.2-0.3-0.3-0.4-0.3c0.1,0,0.1,0.1,0.2,0.2
						c-0.4-0.2,0.3,0.3,0,0.3l-0.1-0.1c0,0.1,0.1,0.2,0,0.3c-0.2-0.2,0-0.1-0.2-0.3c-0.1,0.1,0.2,0.5,0,0.4c0-0.1,0-0.1,0-0.2
						C4,25.1,4,25.2,3.9,25.2l0,0l-0.2,0l0.1,0c0.4,0.6-0.1,0.3,0.1,0.7c-0.2-0.4-0.2-0.2-0.4-0.4c-0.1,0-0.2,0-0.3-0.1
						c0.1,0.2-0.2,0-0.1,0.3c-0.1-0.1-0.1,0.1-0.2-0.1c0,0.1,0.1,0.1,0.2,0.2c0.1,0.4-0.6,0-0.4,0.5c0,0.3,0.2,0.5,0.2,0.8
						c-0.2-0.1-0.2-0.3-0.2-0.3c-0.2,0-0.2,0-0.2,0.2c0-0.1-0.1-0.1-0.2-0.2c0,0.1,0.2,0.3,0,0.3c-0.1-0.1-0.2-0.2-0.2-0.3
						c0,0.1,0.1,0.3,0.1,0.5c-0.1-0.1-0.1-0.2-0.2-0.3C2,27,2,27.2,2.1,27.4l0.1,0c0,0-0.2-0.1-0.2-0.2c-0.1-0.2,0.2,0,0.2,0l0,0.1
						c0.5,0.4,0.1-0.3,0.2-0.3l0.3,0.3L2.6,27c0.1,0.1,0.3,0.2,0.3,0.3c0.2,0.1,0-0.2,0.2-0.1c0,0,0,0,0,0.1l0-0.2
						c0,0.1,0.2,0.2,0.1,0.2c0.3,0,0-0.4,0.2-0.2l0,0c0.1-0.3-0.2-0.2-0.3-0.6l0.6,0.4l-0.2-0.2c0,0,0.1,0,0.2,0.1
						c-0.1-0.2-0.1-0.1-0.2-0.3c0.3,0.1,0.1-0.3,0.5,0c-0.1-0.2-0.2,0-0.2-0.3c0.4,0.3,0-0.2,0.3-0.1c0.2,0.2,0,0.2,0.2,0.3
						c-0.3-0.4,0.2-0.1,0.2-0.2c-0.3-0.3,0-0.2,0.1-0.4c0.1,0.1,0.3-0.1,0.5-0.1l0,0c-0.2-0.3-0.1-0.3-0.1-0.5
						c0.2,0.2,0.2,0.2,0.2,0.3l0.1-0.1c-0.1-0.1-0.1-0.2-0.1-0.2l0.2,0.2c0.1-0.1,0-0.4,0.2-0.4c-0.2-0.2-0.6-0.4-0.6-0.7
						c0.1,0.1,0.3,0.3,0.3,0.3c0,0,0-0.1,0-0.1l0.1,0.2c0.1,0-0.1-0.2,0-0.2c0.1,0.1,0.1,0.1,0.2,0.2c0,0-0.1,0-0.1,0.1
						c0.1,0,0.2,0,0.3,0.1C6,25,5.9,24.9,5.9,24.8C6,24.7,6.1,25,6.2,25c-0.1-0.1,0.1-0.1-0.1-0.3c0,0,0.1,0.1,0.2,0.1
						c0-0.1,0.2-0.3-0.1-0.4l0,0c0,0,0,0,0,0c0,0,0,0,0,0l0,0c0-0.4,0.5-0.2,0.5-0.5L6.8,24c0-0.2,0.2-0.3,0.1-0.5
						c0,0,0.2,0.1,0.3,0.2c0-0.1-0.1-0.2,0.2-0.2c0,0.2,0.1,0.1,0,0.2c0.2,0,0.3,0.1,0.2-0.2c0.1,0.2,0.3,0.2,0.3,0.1l-0.2-0.1
						c0-0.1,0.1-0.1,0.1-0.1L8,23.5c0.5,0.1-0.1-0.8,0.5-0.5c-0.1-0.2-0.2,0-0.4-0.2c0.1-0.1,0.6,0.2,0.6,0.2c0.3,0-0.2-0.5,0-0.5
						c-0.1-0.1-0.3-0.3-0.3-0.5c0.1-0.1,0.5,0.2,0.5,0.4c0,0-0.1,0-0.1,0c0,0.1,0,0.1,0.1,0.2l-0.1-0.1c0.1,0,0.2-0.1,0.4,0.1
						c0-0.1-0.1-0.2-0.2-0.2c0.2,0,0.2-0.2,0.4-0.2c-0.1,0-0.2-0.1-0.2-0.1c0.3-0.1-0.1-0.2,0-0.4c0.2,0.1,0.3,0.3,0.3,0.1
						c0.2,0,0.2,0.2,0.3,0.3c-0.1-0.3,0.3-0.1,0.4-0.1l0,0.1c0-0.1,0-0.1,0.1-0.1L10,21.7c0.1,0,0.1,0,0.2,0
						c-0.1-0.1-0.3-0.3-0.4-0.5c0.1,0,0-0.2,0.3,0c-0.2,0.1,0.2,0.2,0.2,0.4c0,0,0-0.1,0.1-0.1c0,0,0,0.1,0,0.1
						c0.3,0.1-0.2-0.3,0-0.4c0.1,0.1,0.3,0.2,0.3,0.2c-0.1,0.1-0.2-0.2-0.3-0.3c0.2,0,0-0.2,0.1-0.2l-0.1,0c-0.1-0.1,0-0.2,0-0.3
						c0.1,0.1,0,0.1,0.1,0.1c-0.2-0.3,0.4,0.1,0.3-0.2c0.1,0,0.2,0.2,0.3,0.3c-0.1-0.3,0.3,0.1,0.3-0.2c-0.2-0.1-0.2-0.1-0.3-0.3
						l-0.1,0.3l-0.1-0.4c-0.1,0.1,0,0.2-0.1,0.2c-0.1-0.2,0-0.1-0.2-0.3c0.3,0.2,0-0.3,0.3-0.2l0.4,0.4c0.3,0.1,0-0.4,0.3-0.5
						l-0.1,0c-0.1-0.2,0.1-0.1,0.1-0.3c0.1,0.1,0.2,0.2,0.3,0.2c-0.1-0.1,0.1-0.1-0.1-0.4l0.3,0.1c0.2-0.1-0.2-0.6-0.1-0.6
						c0.1,0.2,0.3,0.2,0.3,0.4c0,0,0.1-0.1,0-0.2c0.1,0.1-0.1-0.3,0.1-0.2c0-0.1-0.2-0.2-0.1-0.3c0,0,0.1,0.1,0.1,0.1
						c-0.1-0.1,0-0.2-0.2-0.3c0.6,0.3,0.4-0.4,0.8-0.2c0.1-0.1,0.1-0.3,0.2-0.4c0,0,0.1,0.1,0,0.1c0.3,0-0.3-0.5,0-0.5
						c0.3,0.2,0,0.2,0.2,0.2c0.5,0.4,0.1-0.2,0.5-0.1l0,0c0.2,0.1,0-0.3,0.1-0.4c0,0,0,0,0.1,0.1c-0.2-0.3-0.1-0.5,0-0.7
						c0.1,0.2,0,0.1,0.2,0.3c0-0.1-0.3-0.3-0.3-0.4c0.1,0.1,0.3,0.1,0.5,0.3l-0.1,0.1c0.3,0.2,0.1-0.1,0.2-0.1l0.1,0.1
						c0.1-0.2-0.2-0.5,0-0.6l-0.1-0.1c-0.2-0.4,0.2,0.1,0.1-0.2l0.3,0.3c0-0.1-0.1-0.5,0-0.6c0.1,0.3,0.1,0.5,0.2,0.7
						c0.1-0.1,0.2-0.2,0.1-0.4c0,0,0,0.1,0,0.1c-0.2-0.3-0.2-0.5-0.1-0.6c0.5,0.6,0.4-0.2,0.9,0.2c0-0.4,0.5-0.3,0.7-0.6
						c-0.5-0.3,0.1-0.1-0.4-0.5c0-0.1,0.1-0.1,0.1-0.1l0.4,0.1c0.2,0.1,0,0.1,0.1,0.2c0.1-0.1,0.2,0.1,0.4,0.2
						c-0.2-0.1-0.2-0.3-0.1-0.3l-0.3-0.1c-0.1-0.4,0.5,0.2,0.4-0.2l0.1,0.2c0-0.2,0.3-0.3,0-0.7c0.1,0,0.2,0.1,0.2,0.2
						c0.3-0.1,0.1-0.8,0.4-0.8l0.1,0.1c0-0.1-0.1-0.3,0-0.2c0,0,0.1,0.1,0.1,0.1c0-0.1-0.1-0.3,0-0.3l0.1,0.2c0.3-0.1,0-0.6,0.1-0.8
						c0.3,0.3,0.6,0.3,0.7,0.2l0,0c0.3-0.2,0.1-0.6,0.2-1c0.5,0.2,0.6-0.3,1-0.3c-0.1,0-0.2-0.2-0.2-0.3c0.1,0-0.1-0.4,0.2-0.1l0,0
						c0.3,0.2,0.3,0.1,0.4,0l-0.4-0.4c0.8,0.3,0.3-0.7,0.9-0.4c0-0.1,0-0.2,0-0.3l0.2,0.2c0.2-0.1,0.3-0.1,0.4-0.4l0.1,0.2
						c0.1-0.1-0.5-0.7-0.4-0.8l0.3,0.3c0.2-0.2,0.6-0.1,0.5-0.5c0,0,0.1,0.1,0.1,0.2C22.8,9,23.2,9,22.8,8.6C23.1,8.9,23,8.5,23,8.3
						l0.2,0.2c-0.2-0.3-0.2-0.4-0.2-0.6C23,7.9,23.1,8,23,8c0.2,0-0.1-0.3,0.1-0.3l0.1,0.2c0.1-0.1,0-0.1-0.1-0.3
						c0-0.1,0.2-0.1,0.4,0c-0.1-0.1-0.2-0.3-0.1-0.3c0.1,0.1,0.1,0.1,0.1,0.2c0.3,0,0-0.4,0.3-0.4C23.9,7.2,24,7.2,24,7.2
						c-0.1,0.1-0.2,0.2-0.2,0.2c0.2,0.2,0.3,0.1,0.5,0.4c-0.1-0.2-0.2-0.6-0.1-0.6c0,0,0,0,0.1,0.1l0,0c0,0,0,0,0-0.1
						c0.1,0,0.1,0,0.1,0c0.2,0.1,0.2,0,0.2-0.1c-0.2-0.2-0.1-0.2-0.3-0.3c0,0,0,0,0,0.1c0,0,0,0,0,0c0,0,0,0,0,0
						c0,0-0.1,0.1-0.1,0.1c-0.1-0.1-0.1-0.3,0.1-0.2c-0.1-0.2-0.2-0.3-0.3-0.4c0.3,0.2,0.6,0.2,0.8,0.4c0-0.3,0.3-0.4,0-0.9
						C24.8,5.8,25,6,25,6c0,0.1,0,0.1,0,0.1c0-0.2,0.2-0.3,0-0.6c0.2,0,0.2,0.3,0.3,0.1l0.1,0.1C26,6,25.1,4.7,26,4.9
						c-0.1,0-0.1,0-0.1-0.1c0.6-0.1,0.5-0.9,1.2-0.9c0.2,0,0-0.2,0-0.4l0.2,0.2l-0.1-0.3c0-0.3,0.8,0.3,0.6-0.3l-0.2-0.1
						c0.1,0,0.1-0.3,0.3-0.1c0,0-0.1-0.2,0-0.1l0.1,0.1l0-0.4c0.2,0,0.4,0.5,0.6,0.3c0-0.1-0.1-0.5-0.2-0.6c0,0-0.1,0-0.3-0.1l0-0.1
						c-0.3-0.3-0.6-0.7-1-0.8l0.1,0.3L27,1.5L27,1.4c-0.2-0.1-0.1,0.1,0,0.2c-0.1-0.1-0.2-0.1-0.2-0.1L27,1.8
						c-0.1-0.1-0.2-0.3-0.4-0.3C26.7,1.7,27,1.8,27,2c-0.2-0.1-0.3-0.2-0.2,0c-0.1-0.1-0.1-0.1-0.1-0.2c0,0.2-0.1,0.2,0,0.4
						C26.4,2,26.5,2.3,26.2,2c0.1,0.1,0.2,0.3,0.1,0.4c-0.3-0.5-0.2,0.2-0.6-0.3c0.3,0.4-0.1,0.4,0,0.7c0,0-0.1-0.1,0-0.1
						c-0.1,0-0.2,0-0.3-0.1c0.3,0.3,0.2,0.5,0.3,0.7c-0.3-0.2-0.3-0.4-0.6-0.6c0.2,0.2,0.1,0.4,0.3,0.5c-0.2-0.1-0.1,0-0.4-0.2
						c0.3,0.4,0,0.1,0.2,0.4c-0.3-0.1-0.3-0.3-0.3-0.1C24.7,3.3,24.7,3.1,24.7,3.1z M22.9,6C22.9,6,22.9,6,22.9,6
						C23,6,23,5.9,22.9,6C23,5.9,23,6,22.9,6z M22.8,6.2C22.8,6.2,22.8,6.2,22.8,6.2c0.2,0,0.2,0.1,0.2,0.1
						C22.9,6.2,22.8,6.2,22.8,6.2z M24.5,7.2C24.5,7.2,24.5,7.2,24.5,7.2C24.5,7.1,24.5,7.1,24.5,7.2c-0.1-0.1-0.1-0.1-0.1-0.1
						C24.5,7.1,24.5,7.1,24.5,7.2z"/>
					<path class="st0" d="M24.3,6.8C24.3,6.8,24.3,6.8,24.3,6.8C24.3,6.8,24.3,6.8,24.3,6.8C24.3,6.8,24.3,6.8,24.3,6.8
						C24.3,6.9,24.3,6.8,24.3,6.8z"/>
					<path class="st0" d="M6.2,24.4L6.2,24.4C6.2,24.4,6.2,24.4,6.2,24.4C6.2,24.4,6.2,24.4,6.2,24.4z"/>
					<polygon class="st0" points="19.7,8.5 19.7,8.6 19.7,8.5 					"/>
					<path class="st0" d="M4.4,24.8C4.4,24.8,4.4,24.8,4.4,24.8C4.4,24.8,4.4,24.8,4.4,24.8z"/>
					<path class="st0" d="M3.9,25.2l-0.1,0C3.9,25.2,3.9,25.2,3.9,25.2z"/>
					<path class="st0" d="M3.5,25.5C3.5,25.5,3.5,25.5,3.5,25.5C3.6,25.6,3.6,25.6,3.5,25.5L3.5,25.5z"/>
					<path class="st0" d="M9,19.5C9,19.5,9,19.5,9,19.5C9,19.4,9,19.5,9,19.5z"/>
					<path class="st0" d="M7.7,21.7c0-0.1,0-0.1,0-0.1C7.6,21.5,7.6,21.6,7.7,21.7z"/>
					<path class="st0" d="M10.6,17.4C10.6,17.4,10.6,17.4,10.6,17.4C10.6,17.4,10.6,17.4,10.6,17.4L10.6,17.4z"/>
					<path class="st0" d="M7.8,21.5C7.7,21.4,7.7,21.5,7.8,21.5C7.7,21.5,7.8,21.5,7.8,21.5z"/>
					<path class="st0" d="M1.8,26.9L1.8,26.9C1.8,27,1.8,27,1.8,26.9L1.8,26.9z"/>
					<path class="st0" d="M1.8,27L1.8,27C1.8,27,1.8,27,1.8,27z"/>
					<path class="st0" d="M1.8,27.1L1.8,27.1C1.8,27,1.8,27,1.8,27.1z"/>
					<path class="st0" d="M2.4,26.6L2.4,26.6C2.3,26.5,2.4,26.5,2.4,26.6z"/>
					<path class="st0" d="M2.5,26.4c-0.1,0-0.2-0.1-0.2,0l0.1,0.1C2.2,26.3,2.6,26.5,2.5,26.4z"/>
					<path class="st0" d="M4,26.7l-0.2,0.1c0.1,0.1,0.2,0.1,0.2,0.2C4.4,27,3.8,26.8,4,26.7z"/>
					<path class="st0" d="M4.5,26.4c0,0.1,0.1,0.1,0.2,0.2C4.6,26.5,4.6,26.4,4.5,26.4z"/>
					<path class="st0" d="M7.2,23.7l0.2,0.2C7.4,23.8,7.3,23.8,7.2,23.7z"/>
					<polygon class="st0" points="6.8,22.2 6.6,22.2 6.8,22.4 					"/>
					<polygon class="st0" points="8.4,23.2 8.4,23.3 8.4,23.1 					"/>
					<path class="st0" d="M12.9,18.6l-0.2-0.2C12.7,18.5,12.9,18.7,12.9,18.6z"/>
					<path class="st0" d="M14.6,16.4c0.1,0.1,0.3,0.1,0.2,0C14.8,16.4,14.6,16.3,14.6,16.4z"/>
					<polygon class="st0" points="20.9,10.8 21,11 21,10.8 					"/>
				</g>
			</g>
		</g>
	</g>
</g>
</svg>
